<?xml version="1.0" encoding="UTF-8"?><svg xmlns="http://www.w3.org/2000/svg" viewBox="0 0 241 88"><defs><style>.d{fill:#0093d0;fill-rule:evenodd;}</style></defs><g id="a"/><g id="b"><g id="c"><path class="d" d="M145.3,0c-2.78,3.11-6.81,7.46-7.81,11.98-.77,3.59,1.21,11.05-3.1,12.87-4.83,2.02-12.89-4.92-16.55-7.3-4.35-2.86-7.69-6.05-12.97-4.16-4.19,1.53-7.13,4.28-11.4,6.05-2.5,1.01-8.74,4.44-8.78,7.38,0,1.78,2.62,.61,1.37,2.95-.97,1.82-3.62,1.09-5.2,.73-7.09-1.57-12.12-7.5-17.56-11.86-1.93-1.53-4.79-4.52-7.41-4.68-3.02-.16-4.99,2.99-6.89,4.92-2.22,2.26-5.72,4.92-6.85,8.03-1.25,3.39,.72,3.39,2.26,6.33-9.91,2.1-22.07-10.13-30.12-14.77-2.7-1.57-7.33-4.92-10.27-2.78C.63,18.11,.23,27.27,.07,30.94c-.4,9.76,.85,18.2,5.52,27.31,1.57,3.07,3.95,8.07,7.89,6.54,3.83-1.49,8.18-7.75,11.24-10.53,3.91-3.55,7.97-6.94,13.05-8.55,1.37-.44,4.23-1.61,5.4-.56,.77,.69,1.73,6.46,2.34,7.95,1.45,3.51,1.89,7.42,5.8,7.91,4.07,.52,7.05-2.18,10.75-3.07,8.42-2.06,19.33-5.24,24.16,3.67,1.69,3.15,1.73,8.84,4.63,11.01,3.26,2.42,9.91,.61,13.53,.4,4.75-.24,9.34,.24,14.02,.36,5.11,.12,9.67,2.9,14.82,3.87,6.2,1.17,12.48,1.61,18.81,1.61s13.61-1.61,19.65-.4c-.6,3.63,1.17,11.09,6.08,9.24,6.16-2.3,3.38-10.61,6.69-13.72,1.93-1.86,6.85-2.38,9.34-3.07,3.75-1.01,7.53-1.65,11.36-2.34,7.73-1.37,15.14-2.1,22.11-5.77,1.29-.69,4.63-2.99,6.08-1.05,1.21,1.61-1.21,4.64-2.42,5.41,2.5-.52,2.58-1.9,3.46-3.87,.48-1.09,2.09-3.47,2.26-4.64,.52-4.6-5.03-2.74-7.65-4.4,3.26-2.06,15.46-2.62,11.08-9.16-2.05-3.07-7.45-4.32-10.67-5.85-4.39-2.1-8.54-4.32-12.73-6.7-8.58-4.88-18.69-8.43-28.63-9.16-9.38-.69-18.04,.89-25.25-6.17-4.95-4.88-10.23-15.45-17.48-17.23Zm-38.62,72.86v0Z"/></g></g></svg>